<svg id="Group_260" data-name="Group 260" xmlns="http://www.w3.org/2000/svg" xmlns:xlink="http://www.w3.org/1999/xlink" width="376" height="102.505" viewBox="0 0 376 102.505">
  <defs>
    <linearGradient id="linear-gradient" x1="1.053" y1="0.142" x2="0.5" y2="1" gradientUnits="objectBoundingBox">
      <stop offset="0" stop-color="#fff"/>
      <stop offset="1" stop-color="gray"/>
    </linearGradient>
    <linearGradient id="linear-gradient-2" x1="0.005" y1="0.355" x2="1.034" y2="0.508" gradientUnits="objectBoundingBox">
      <stop offset="0" stop-color="#08aedf"/>
      <stop offset="1" stop-color="#61d69d"/>
    </linearGradient>
    <clipPath id="clip-path">
      <path id="Path_1" data-name="Path 1" d="M5.989,18.142a91.042,91.042,0,0,1,90.97,0,90.937,90.937,0,0,1-45.485,78.4,90.954,90.954,0,0,1-45.485-78.4M51.474,0A102.512,102.512,0,0,0,0,13.774a102.963,102.963,0,0,0,51.474,88.731,102.937,102.937,0,0,0,51.482-88.731A102.521,102.521,0,0,0,51.474,0Z" transform="translate(0 0)" fill="url(#linear-gradient)"/>
    </clipPath>
    <linearGradient id="linear-gradient-3" x1="1.026" y1="0.525" x2="0.016" y2="0.561" gradientUnits="objectBoundingBox">
      <stop offset="0" stop-color="#79e18b"/>
      <stop offset="1" stop-color="#08aedf"/>
    </linearGradient>
    <clipPath id="clip-path-2">
      <path id="Path_2" data-name="Path 2" d="M80.136,52.023A12.541,12.541,0,0,1,89,73.426L73.4,89.033a3.013,3.013,0,0,1-4.258,0l-15.6-15.607A12.536,12.536,0,0,1,71.277,55.7a12.462,12.462,0,0,1,8.859-3.678M30.991,41.635A80.561,80.561,0,0,0,71.27,111.077a80.552,80.552,0,0,0,40.287-69.442,80.684,80.684,0,0,0-80.565,0" transform="translate(-30.991 -30.86)" fill="none"/>
    </clipPath>
    <linearGradient id="linear-gradient-4" x1="1.072" y1="0.587" x2="0.212" y2="0.593" xlink:href="#linear-gradient-3"/>
    <clipPath id="clip-path-3">
      <path id="Path_3" data-name="Path 3" d="M115.768,117.39c-1.807.027-1.3,5.95-2.138,8.281-.245.6-.454.451-.617-.007-.517-1.464-1.007-4.006-2.489-.9-1.146,2.4-1.994,1.886-3.111,1.368a3,3,0,0,0-2.943-.083c-1.551.8-1.718.79-2.8.463a1.962,1.962,0,0,0,2.115.2,3.127,3.127,0,0,1,3.465-.085c2.545,1.292,3.311-.32,3.857-1.5.171-.368.5-1.034.821-.315.063.187.115.364.143.457,1.564,5.073,2.66.378,3.379-3.358h0c.207-1.027.474-1.034.6-.006.276,2.391.495,5.265.822,7.269.524,3.2,1.8,4.08,2.607.033.314-1.575.509-3.484.674-4.68.1-.613.239-.619.41-.019.716,2.225,1.459,5.96,2.793.743.106-.417.335-.687.549-.291.351.7.742,1.571,2.687.525a2.374,2.374,0,0,1,2.426-.082,1.85,1.85,0,0,0,2.155-.115,1.829,1.829,0,0,1-2.057-.161c-.57-.356-1.214-.712-3.03.09-1.012.448-1.487-.18-1.827-.755-.486-.825-.927-1.876-1.805,1.163-.134.462-.328,1.03-.682.1-.435-1.139-1.588-5.461-2.443-1.783-.281,1.206-.534,2.613-.782,4.148-.217,1.329-.471,1.228-.574-.007-.451-3.924.013-10.7-2.186-10.7h-.016" transform="translate(-101.671 -117.39)" fill="url(#linear-gradient-2)"/>
    </clipPath>
    <clipPath id="clip-path-4">
      <rect id="Rectangle_4" data-name="Rectangle 4" width="376" height="102.505" fill="none"/>
    </clipPath>
  </defs>
  <g id="Group_2" data-name="Group 2" transform="translate(0 0)">
    <g id="Group_1" data-name="Group 1" clip-path="url(#clip-path)">
      <path id="Path_4" data-name="Path 4" d="M0,0H145.283V145.283H0Z" transform="translate(-51.253 51.253) rotate(-45)" fill="url(#linear-gradient-3)"/>
    </g>
  </g>
  <g id="Group_4" data-name="Group 4" transform="translate(11.195 11.148)">
    <g id="Group_3" data-name="Group 3" clip-path="url(#clip-path-2)">
      <rect id="Rectangle_2" data-name="Rectangle 2" width="113.691" height="113.69" transform="translate(-40.109 40.109) rotate(-45)" fill="url(#linear-gradient-4)"/>
    </g>
  </g>
  <g id="Group_6" data-name="Group 6" transform="translate(36.728 42.406)">
    <g id="Group_5" data-name="Group 5" clip-path="url(#clip-path-3)">
      <rect id="Rectangle_3" data-name="Rectangle 3" width="32.083" height="32.083" transform="translate(-7.936 7.936) rotate(-45)" fill="url(#linear-gradient-2)"/>
    </g>
  </g>
  <text id="TM" transform="translate(109.575 19.852)" fill="#061e40" font-size="6" font-family="MyriadPro-Semibold, Myriad Pro" font-weight="600"><tspan x="0" y="0" letter-spacing="0.066em">T</tspan><tspan y="0">M</tspan></text>
  <g id="Group_8" data-name="Group 8" transform="translate(0 0)">
    <g id="Group_7" data-name="Group 7" clip-path="url(#clip-path-4)">
      <text id="CARDIAC_ELECTROPHYSIOLOGIST" data-name="CARDIAC ELECTROPHYSIOLOGIST" transform="translate(110.519 60.358)" fill="#061e40" font-size="12" font-family="Montserrat-Regular, Montserrat"><tspan x="0" y="12" letter-spacing="0.057em">C</tspan><tspan y="12" letter-spacing="0.074em">A</tspan><tspan y="12" letter-spacing="0.075em">RDI</tspan><tspan y="12" letter-spacing="0.064em">A</tspan><tspan y="12" letter-spacing="0.075em">C</tspan><tspan y="12" letter-spacing="0.074em"> </tspan><tspan y="12" letter-spacing="0.075em">EL</tspan><tspan y="12" letter-spacing="0.071em">E</tspan><tspan y="12" letter-spacing="0.065em">C</tspan><tspan y="12" letter-spacing="0.075em">TRO</tspan><tspan y="12" letter-spacing="0.065em">P</tspan><tspan y="12" letter-spacing="0.075em">H</tspan><tspan y="12" letter-spacing="0.06em">Y</tspan><tspan y="12" letter-spacing="0.075em">SIO</tspan><tspan y="12" letter-spacing="0.061em">L</tspan><tspan y="12" letter-spacing="0.075em">OGI</tspan><tspan y="12" letter-spacing="0.065em">S</tspan><tspan y="12">T</tspan></text>
      <text id="ANWER_ALZURFI" data-name="ANWER ALZURFI" transform="translate(112.797 53.769)" fill="#061e40" font-size="31" font-family="ElMessiri-Regular, El Messiri"><tspan x="0" y="0" letter-spacing="0.05em">AN</tspan><tspan y="0" letter-spacing="0.049em">WE</tspan><tspan y="0" letter-spacing="0.05em">R</tspan><tspan y="0" letter-spacing="0.049em"> </tspan><tspan y="0" letter-spacing="0.05em">ALZUR</tspan><tspan y="0" letter-spacing="0.049em">F</tspan><tspan y="0">I</tspan></text>
    </g>
  </g>
</svg>
